<svg xmlns="http://www.w3.org/2000/svg" xmlns:xlink="http://www.w3.org/1999/xlink" width="500" zoomAndPan="magnify" viewBox="0 0 375 374.999991" height="500" preserveAspectRatio="xMidYMid meet" version="1.2"><defs><clipPath id="ea75325dc2"><path d="M 79 85.6875 L 296 85.6875 L 296 289.6875 L 79 289.6875 Z M 79 85.6875 "/></clipPath><clipPath id="f389845b66"><path d="M 75 173.90625 L 292 173.90625 L 292 213.65625 L 75 213.65625 Z M 75 173.90625 "/></clipPath></defs><g id="d8d00578f5"><g clip-rule="nonzero" clip-path="url(#ea75325dc2)"><path style=" stroke:none;fill-rule:nonzero;fill:#583333;fill-opacity:1;" d="M 180.167969 94.507812 C 179.742188 94.789062 179.121094 95.207031 178.339844 95.753906 C 177.5625 96.300781 176.628906 96.984375 175.578125 97.796875 C 174.53125 98.613281 173.371094 99.554688 172.128906 100.609375 C 170.890625 101.675781 169.582031 102.867188 168.25 104.175781 C 166.914062 105.488281 165.574219 106.925781 164.242188 108.472656 C 162.910156 110.015625 161.617188 111.675781 160.398438 113.433594 C 159.183594 115.1875 158.042969 117.039062 157.027344 118.953125 C 155.996094 120.859375 155.105469 122.839844 154.355469 124.835938 C 153.976562 125.835938 153.652344 126.84375 153.351562 127.839844 C 153.207031 128.34375 153.066406 128.859375 152.9375 129.347656 C 152.820312 129.847656 152.691406 130.347656 152.585938 130.839844 C 151.726562 134.816406 151.519531 138.636719 151.703125 141.886719 C 151.714844 142.292969 151.761719 142.6875 151.785156 143.078125 C 151.800781 143.269531 151.816406 143.460938 151.832031 143.652344 C 151.851562 143.839844 151.871094 144.027344 151.890625 144.210938 C 151.929688 144.578125 151.960938 144.941406 152.007812 145.289062 C 152.054688 145.636719 152.101562 145.976562 152.148438 146.304688 C 152.238281 146.957031 152.359375 147.566406 152.453125 148.132812 C 152.570312 148.691406 152.675781 149.207031 152.773438 149.671875 C 152.882812 150.136719 152.980469 150.546875 153.066406 150.90625 C 153.15625 151.265625 153.246094 151.570312 153.308594 151.816406 C 153.445312 152.308594 153.515625 152.570312 153.515625 152.570312 L 153.164062 152.671875 C 153.164062 152.671875 153.128906 152.613281 153.0625 152.492188 C 152.996094 152.375 152.894531 152.199219 152.773438 151.96875 C 152.65625 151.734375 152.5 151.453125 152.332031 151.113281 C 152.164062 150.765625 151.976562 150.363281 151.773438 149.910156 C 151.574219 149.457031 151.378906 148.949219 151.152344 148.390625 C 151.050781 148.113281 150.945312 147.820312 150.839844 147.511719 C 150.738281 147.210938 150.621094 146.890625 150.527344 146.558594 C 150.105469 145.238281 149.730469 143.710938 149.429688 142.011719 C 149.355469 141.589844 149.292969 141.152344 149.230469 140.703125 C 149.179688 140.257812 149.125 139.800781 149.074219 139.339844 C 149.027344 138.875 149.003906 138.398438 148.972656 137.914062 C 148.945312 137.429688 148.9375 136.941406 148.921875 136.441406 C 148.898438 134.445312 149.03125 132.324219 149.378906 130.160156 C 149.460938 129.617188 149.5625 129.074219 149.671875 128.527344 C 149.730469 128.253906 149.792969 127.980469 149.851562 127.707031 C 149.914062 127.449219 149.964844 127.203125 150.03125 126.929688 C 150.105469 126.648438 150.179688 126.363281 150.253906 126.078125 C 150.328125 125.792969 150.402344 125.511719 150.484375 125.238281 C 150.65625 124.695312 150.820312 124.144531 151.015625 123.605469 C 151.75 121.421875 152.699219 119.28125 153.785156 117.226562 C 154.34375 116.207031 154.921875 115.199219 155.542969 114.226562 L 156.003906 113.496094 L 156.492188 112.785156 C 156.8125 112.3125 157.152344 111.851562 157.484375 111.394531 C 157.816406 110.933594 158.164062 110.488281 158.507812 110.046875 C 158.855469 109.605469 159.222656 109.183594 159.574219 108.757812 C 159.929688 108.332031 160.296875 107.925781 160.65625 107.515625 L 160.789062 107.359375 L 160.835938 107.308594 L 160.851562 107.289062 L 160.882812 107.253906 L 160.953125 107.183594 L 161.21875 106.90625 C 161.398438 106.71875 161.578125 106.53125 161.757812 106.347656 C 161.9375 106.160156 162.097656 105.984375 162.296875 105.789062 C 162.488281 105.597656 162.679688 105.410156 162.871094 105.222656 C 163.25 104.839844 163.632812 104.46875 164.011719 104.132812 C 164.769531 103.4375 165.515625 102.769531 166.269531 102.152344 C 166.644531 101.84375 167.027344 101.550781 167.394531 101.253906 C 167.761719 100.957031 168.128906 100.675781 168.5 100.40625 C 169.234375 99.863281 169.957031 99.355469 170.65625 98.882812 C 172.0625 97.945312 173.394531 97.152344 174.589844 96.492188 C 175.792969 95.835938 176.863281 95.3125 177.761719 94.910156 C 178.652344 94.5 179.382812 94.234375 179.867188 94.039062 C 180.113281 93.945312 180.304688 93.878906 180.433594 93.835938 C 180.5625 93.789062 180.628906 93.769531 180.628906 93.769531 L 180.824219 94.078125 C 180.824219 94.078125 180.59375 94.226562 180.167969 94.507812 Z M 140.160156 166.582031 C 139.824219 166.773438 139.332031 167.054688 138.703125 167.410156 C 138.394531 167.589844 138.050781 167.789062 137.675781 168.003906 C 137.308594 168.234375 136.902344 168.453125 136.480469 168.71875 C 136.0625 168.980469 135.609375 169.242188 135.148438 169.546875 C 134.917969 169.699219 134.675781 169.839844 134.433594 170 C 134.191406 170.160156 133.949219 170.320312 133.699219 170.488281 C 132.703125 171.15625 131.640625 171.890625 130.582031 172.730469 C 130.3125 172.933594 130.042969 173.144531 129.78125 173.367188 C 129.515625 173.585938 129.242188 173.800781 128.976562 174.03125 C 128.71875 174.265625 128.453125 174.503906 128.183594 174.734375 C 127.914062 174.96875 127.667969 175.226562 127.402344 175.472656 C 127.273438 175.597656 127.144531 175.722656 127.011719 175.847656 C 126.886719 175.980469 126.761719 176.109375 126.636719 176.242188 C 126.511719 176.375 126.386719 176.503906 126.257812 176.636719 L 126.070312 176.835938 L 125.890625 177.042969 C 125.648438 177.316406 125.40625 177.589844 125.164062 177.871094 C 124.9375 178.160156 124.710938 178.449219 124.480469 178.738281 C 123.59375 179.917969 122.800781 181.175781 122.140625 182.496094 C 121.503906 183.824219 121.007812 185.210938 120.632812 186.617188 C 120.558594 186.972656 120.484375 187.328125 120.410156 187.679688 C 120.375 187.859375 120.324219 188.035156 120.300781 188.214844 C 120.277344 188.394531 120.25 188.570312 120.226562 188.75 C 120.183594 189.105469 120.117188 189.460938 120.082031 189.816406 C 120.0625 190.171875 120.03125 190.527344 120.007812 190.882812 C 119.992188 191.058594 119.980469 191.234375 119.964844 191.410156 C 119.96875 191.585938 119.96875 191.761719 119.96875 191.9375 C 119.972656 192.289062 119.96875 192.636719 119.960938 192.980469 C 119.96875 193.671875 120.042969 194.351562 120.066406 195.019531 C 120.132812 195.683594 120.222656 196.332031 120.285156 196.964844 C 120.371094 197.59375 120.496094 198.199219 120.585938 198.789062 C 120.609375 198.9375 120.632812 199.082031 120.65625 199.226562 C 120.679688 199.371094 120.71875 199.511719 120.746094 199.652344 C 120.808594 199.929688 120.871094 200.203125 120.925781 200.472656 C 121.042969 201.011719 121.132812 201.527344 121.269531 202 C 121.390625 202.480469 121.507812 202.925781 121.609375 203.347656 C 121.660156 203.554688 121.707031 203.757812 121.753906 203.949219 C 121.804688 204.140625 121.859375 204.320312 121.90625 204.496094 C 122.308594 205.875 122.5 206.695312 122.5 206.695312 C 122.5 206.695312 121.988281 206.042969 121.15625 204.835938 C 121.054688 204.6875 120.9375 204.527344 120.832031 204.359375 C 120.730469 204.183594 120.621094 204.003906 120.507812 203.8125 C 120.28125 203.4375 120.046875 203.019531 119.785156 202.578125 C 119.722656 202.464844 119.660156 202.355469 119.59375 202.238281 C 119.527344 202.125 119.476562 202 119.414062 201.878906 C 119.292969 201.632812 119.171875 201.382812 119.046875 201.125 C 118.917969 200.863281 118.796875 200.597656 118.667969 200.320312 C 118.601562 200.183594 118.53125 200.042969 118.472656 199.902344 C 118.417969 199.757812 118.359375 199.609375 118.300781 199.460938 C 118.183594 199.167969 118.070312 198.863281 117.953125 198.550781 C 117.839844 198.238281 117.703125 197.925781 117.605469 197.59375 C 117.40625 196.933594 117.207031 196.242188 117.011719 195.527344 C 116.933594 195.164062 116.859375 194.792969 116.789062 194.417969 C 116.75 194.230469 116.710938 194.042969 116.675781 193.851562 C 116.636719 193.664062 116.597656 193.472656 116.582031 193.277344 C 116.53125 192.882812 116.484375 192.488281 116.445312 192.085938 C 116.421875 191.886719 116.402344 191.683594 116.378906 191.484375 C 116.375 191.277344 116.367188 191.070312 116.359375 190.863281 C 116.351562 190.453125 116.335938 190.035156 116.328125 189.613281 C 116.335938 189.191406 116.371094 188.769531 116.398438 188.339844 C 116.410156 188.125 116.425781 187.910156 116.441406 187.695312 C 116.457031 187.476562 116.5 187.265625 116.527344 187.050781 C 116.59375 186.617188 116.664062 186.183594 116.730469 185.75 C 117.101562 184.023438 117.671875 182.304688 118.453125 180.683594 C 119.253906 179.074219 120.257812 177.582031 121.371094 176.242188 C 121.660156 175.914062 121.945312 175.589844 122.230469 175.265625 C 122.53125 174.964844 122.835938 174.660156 123.132812 174.359375 L 123.359375 174.140625 L 123.597656 173.929688 C 123.753906 173.789062 123.910156 173.652344 124.066406 173.515625 C 124.222656 173.378906 124.378906 173.246094 124.535156 173.109375 C 124.695312 172.980469 124.855469 172.855469 125.015625 172.730469 C 126.285156 171.707031 127.609375 170.871094 128.886719 170.152344 C 130.164062 169.429688 131.425781 168.863281 132.597656 168.386719 C 133.773438 167.914062 134.871094 167.550781 135.851562 167.269531 C 136.832031 166.988281 137.699219 166.785156 138.414062 166.640625 C 139.132812 166.5 139.699219 166.40625 140.085938 166.359375 C 140.472656 166.304688 140.679688 166.28125 140.679688 166.28125 C 140.679688 166.28125 140.5 166.382812 140.160156 166.582031 Z M 109.65625 219.984375 C 109.316406 220.175781 108.824219 220.457031 108.199219 220.8125 C 107.886719 220.992188 107.542969 221.195312 107.171875 221.410156 C 106.800781 221.636719 106.394531 221.859375 105.976562 222.125 C 105.558594 222.386719 105.101562 222.644531 104.640625 222.949219 C 104.410156 223.101562 104.167969 223.242188 103.929688 223.402344 C 103.6875 223.558594 103.441406 223.726562 103.191406 223.890625 C 102.199219 224.5625 101.136719 225.292969 100.078125 226.132812 C 99.808594 226.339844 99.539062 226.546875 99.277344 226.769531 C 99.011719 226.988281 98.734375 227.203125 98.472656 227.433594 C 98.210938 227.671875 97.949219 227.90625 97.679688 228.140625 C 97.410156 228.371094 97.160156 228.628906 96.898438 228.875 C 96.769531 229 96.636719 229.125 96.507812 229.25 C 96.382812 229.382812 96.257812 229.515625 96.132812 229.644531 C 96.007812 229.777344 95.878906 229.90625 95.753906 230.039062 L 95.5625 230.234375 L 95.382812 230.445312 C 95.144531 230.71875 94.902344 230.996094 94.660156 231.273438 C 94.433594 231.5625 94.203125 231.851562 93.976562 232.144531 C 93.089844 233.320312 92.292969 234.578125 91.636719 235.898438 C 91 237.226562 90.503906 238.613281 90.128906 240.019531 C 90.050781 240.375 89.976562 240.730469 89.902344 241.085938 C 89.867188 241.261719 89.820312 241.4375 89.792969 241.617188 C 89.769531 241.796875 89.746094 241.976562 89.722656 242.152344 C 89.675781 242.511719 89.613281 242.863281 89.578125 243.21875 C 89.558594 243.578125 89.527344 243.929688 89.5 244.285156 C 89.488281 244.460938 89.472656 244.636719 89.460938 244.8125 C 89.460938 244.988281 89.460938 245.167969 89.464844 245.339844 C 89.464844 245.691406 89.464844 246.039062 89.457031 246.386719 C 89.464844 247.078125 89.539062 247.753906 89.5625 248.421875 C 89.625 249.085938 89.71875 249.730469 89.78125 250.367188 C 89.867188 250.996094 89.992188 251.601562 90.082031 252.191406 C 90.105469 252.339844 90.128906 252.488281 90.148438 252.632812 C 90.175781 252.773438 90.210938 252.914062 90.242188 253.054688 C 90.304688 253.335938 90.367188 253.609375 90.421875 253.878906 C 90.539062 254.414062 90.628906 254.933594 90.761719 255.40625 C 90.882812 255.882812 91.003906 256.328125 91.101562 256.75 C 91.152344 256.960938 91.203125 257.160156 91.25 257.351562 C 91.296875 257.546875 91.355469 257.726562 91.402344 257.898438 C 91.800781 259.273438 91.992188 260.097656 91.992188 260.097656 C 91.992188 260.097656 91.484375 259.449219 90.652344 258.238281 C 90.550781 258.089844 90.429688 257.933594 90.328125 257.757812 C 90.226562 257.585938 90.117188 257.40625 90.003906 257.21875 C 89.773438 256.839844 89.539062 256.425781 89.28125 255.980469 C 89.21875 255.867188 89.152344 255.757812 89.085938 255.644531 C 89.023438 255.523438 88.96875 255.40625 88.910156 255.28125 C 88.789062 255.039062 88.667969 254.785156 88.539062 254.527344 C 88.414062 254.265625 88.289062 253.996094 88.160156 253.722656 C 88.097656 253.585938 88.027344 253.449219 87.96875 253.304688 C 87.910156 253.160156 87.855469 253.015625 87.796875 252.863281 C 87.675781 252.570312 87.566406 252.261719 87.449219 251.953125 C 87.335938 251.640625 87.199219 251.328125 87.101562 250.996094 C 86.902344 250.335938 86.703125 249.644531 86.507812 248.929688 C 86.425781 248.566406 86.355469 248.199219 86.28125 247.820312 C 86.246094 247.632812 86.207031 247.445312 86.171875 247.257812 C 86.132812 247.0625 86.09375 246.871094 86.074219 246.675781 C 86.027344 246.289062 85.980469 245.890625 85.941406 245.492188 C 85.917969 245.289062 85.898438 245.089844 85.875 244.882812 C 85.867188 244.679688 85.863281 244.476562 85.855469 244.269531 C 85.84375 243.855469 85.828125 243.4375 85.824219 243.015625 C 85.832031 242.597656 85.867188 242.167969 85.890625 241.742188 C 85.90625 241.527344 85.921875 241.3125 85.9375 241.097656 C 85.949219 240.882812 85.996094 240.667969 86.023438 240.453125 C 86.089844 240.019531 86.15625 239.585938 86.226562 239.152344 C 86.59375 237.425781 87.167969 235.707031 87.945312 234.085938 C 88.75 232.476562 89.75 230.984375 90.867188 229.644531 C 91.152344 229.320312 91.4375 228.992188 91.722656 228.667969 C 92.027344 228.363281 92.328125 228.0625 92.628906 227.765625 L 92.855469 227.539062 L 93.089844 227.332031 C 93.25 227.195312 93.402344 227.054688 93.558594 226.917969 C 93.714844 226.78125 93.871094 226.644531 94.027344 226.511719 C 94.191406 226.386719 94.351562 226.257812 94.511719 226.132812 C 95.78125 225.109375 97.101562 224.273438 98.382812 223.554688 C 99.660156 222.832031 100.921875 222.269531 102.09375 221.789062 C 103.265625 221.320312 104.367188 220.957031 105.347656 220.675781 C 106.328125 220.390625 107.191406 220.191406 107.910156 220.042969 C 108.628906 219.902344 109.191406 219.808594 109.578125 219.757812 C 109.964844 219.710938 110.171875 219.683594 110.171875 219.683594 C 110.171875 219.683594 109.992188 219.789062 109.65625 219.984375 Z M 293.839844 232.058594 C 289.367188 220.441406 278.820312 212.953125 267.222656 211.824219 C 266.773438 212.207031 266.289062 212.585938 265.769531 212.964844 C 264.761719 213.6875 263.625 214.390625 262.386719 215.027344 C 261.144531 215.660156 259.804688 216.238281 258.398438 216.757812 C 256.996094 217.277344 255.519531 217.710938 254.015625 218.105469 C 253.261719 218.289062 252.507812 218.484375 251.734375 218.636719 C 251.355469 218.714844 250.972656 218.804688 250.585938 218.875 L 249.429688 219.085938 C 249.042969 219.160156 248.65625 219.21875 248.269531 219.277344 C 247.882812 219.335938 247.5 219.394531 247.113281 219.457031 C 246.339844 219.558594 245.570312 219.65625 244.8125 219.746094 C 244.046875 219.824219 243.289062 219.910156 242.539062 219.972656 C 241.792969 220.03125 241.054688 220.09375 240.324219 220.140625 C 239.597656 220.183594 238.882812 220.222656 238.183594 220.261719 C 237.484375 220.285156 236.796875 220.3125 236.128906 220.332031 C 235.464844 220.359375 234.8125 220.359375 234.1875 220.371094 C 233.5625 220.378906 232.957031 220.390625 232.375 220.382812 C 231.792969 220.378906 231.238281 220.378906 230.707031 220.375 C 230.175781 220.371094 229.675781 220.351562 229.203125 220.34375 C 228.257812 220.324219 227.4375 220.304688 226.761719 220.273438 C 225.410156 220.21875 224.636719 220.1875 224.636719 220.1875 C 224.636719 220.1875 225.410156 220.160156 226.761719 220.113281 C 227.4375 220.097656 228.257812 220.054688 229.199219 220.003906 C 229.667969 219.980469 230.171875 219.960938 230.695312 219.925781 C 231.222656 219.886719 231.777344 219.847656 232.351562 219.808594 C 232.929688 219.773438 233.53125 219.71875 234.152344 219.660156 C 234.773438 219.601562 235.414062 219.558594 236.074219 219.480469 C 236.730469 219.410156 237.410156 219.335938 238.097656 219.261719 C 238.789062 219.171875 239.492188 219.078125 240.207031 218.984375 C 240.921875 218.882812 241.644531 218.765625 242.375 218.65625 C 243.105469 218.539062 243.84375 218.398438 244.585938 218.269531 C 245.328125 218.125 246.070312 217.972656 246.816406 217.816406 C 247.191406 217.726562 247.558594 217.644531 247.933594 217.558594 C 248.304688 217.472656 248.675781 217.386719 249.042969 217.289062 L 250.152344 216.996094 C 250.519531 216.90625 250.882812 216.789062 251.246094 216.6875 C 251.976562 216.484375 252.691406 216.242188 253.398438 216.015625 C 254.804688 215.527344 256.175781 215.011719 257.453125 214.429688 C 266.496094 210.300781 270.597656 201.738281 270.824219 191.996094 C 270.917969 187.851562 270.1875 183.707031 268.703125 179.84375 C 263.972656 167.550781 252.445312 159.882812 240.0625 159.472656 C 239.96875 159.800781 239.855469 160.144531 239.722656 160.492188 C 239.339844 161.527344 238.753906 162.628906 237.972656 163.699219 C 237.1875 164.761719 236.226562 165.8125 235.089844 166.742188 C 234.953125 166.867188 234.804688 166.976562 234.65625 167.085938 C 234.511719 167.199219 234.359375 167.308594 234.210938 167.421875 C 234.0625 167.535156 233.910156 167.644531 233.757812 167.761719 C 233.601562 167.867188 233.445312 167.964844 233.285156 168.070312 C 232.964844 168.273438 232.644531 168.484375 232.316406 168.683594 C 231.980469 168.867188 231.640625 169.054688 231.300781 169.242188 C 231.128906 169.335938 230.960938 169.4375 230.785156 169.519531 C 230.605469 169.605469 230.429688 169.6875 230.253906 169.773438 C 229.898438 169.9375 229.539062 170.105469 229.179688 170.273438 C 228.8125 170.417969 228.441406 170.566406 228.070312 170.714844 C 227.699219 170.859375 227.328125 171.015625 226.945312 171.136719 C 226.5625 171.257812 226.183594 171.386719 225.800781 171.515625 C 225.609375 171.578125 225.417969 171.644531 225.226562 171.703125 L 224.644531 171.859375 C 223.863281 172.070312 223.089844 172.308594 222.300781 172.464844 C 220.734375 172.839844 219.152344 173.109375 217.59375 173.355469 C 216.8125 173.460938 216.039062 173.5625 215.277344 173.664062 C 214.511719 173.75 213.753906 173.8125 213.011719 173.882812 C 212.636719 173.917969 212.269531 173.949219 211.90625 173.984375 C 211.539062 174.007812 211.175781 174.027344 210.816406 174.046875 C 210.097656 174.085938 209.398438 174.125 208.71875 174.167969 C 207.351562 174.207031 206.0625 174.238281 204.871094 174.261719 C 203.683594 174.253906 202.589844 174.246094 201.625 174.238281 C 201.140625 174.242188 200.691406 174.222656 200.273438 174.207031 C 199.859375 174.191406 199.472656 174.179688 199.125 174.167969 C 197.742188 174.117188 196.953125 174.09375 196.953125 174.09375 C 196.953125 174.09375 197.742188 174.0625 199.125 174.007812 C 199.472656 173.996094 199.855469 173.980469 200.273438 173.96875 C 200.6875 173.949219 201.140625 173.9375 201.621094 173.902344 C 202.582031 173.835938 203.664062 173.765625 204.847656 173.6875 C 206.023438 173.574219 207.300781 173.449219 208.648438 173.316406 C 209.320312 173.230469 210.011719 173.136719 210.71875 173.046875 C 211.066406 173 211.421875 172.953125 211.785156 172.910156 C 212.140625 172.847656 212.503906 172.789062 212.863281 172.730469 C 213.589844 172.605469 214.332031 172.492188 215.074219 172.351562 C 215.816406 172.195312 216.566406 172.042969 217.320312 171.886719 C 218.824219 171.535156 220.339844 171.160156 221.820312 170.691406 C 222.570312 170.484375 223.292969 170.199219 224.023438 169.949219 L 224.5625 169.757812 C 224.742188 169.6875 224.917969 169.613281 225.09375 169.539062 C 225.449219 169.394531 225.800781 169.25 226.148438 169.101562 C 226.503906 168.96875 226.835938 168.792969 227.171875 168.632812 C 227.507812 168.472656 227.839844 168.308594 228.171875 168.148438 C 228.492188 167.972656 228.808594 167.792969 229.121094 167.617188 C 229.28125 167.527344 229.4375 167.441406 229.59375 167.351562 C 229.746094 167.265625 229.890625 167.164062 230.042969 167.066406 C 230.335938 166.878906 230.632812 166.6875 230.921875 166.496094 C 246.042969 155.695312 225.078125 139.191406 216.183594 132.09375 C 206.832031 124.628906 190.871094 116.382812 191.5625 102.742188 C 192.21875 93.703125 201.695312 85.675781 201.695312 85.675781 L 200.996094 85.675781 L 200.996094 85.679688 C 196.828125 85.730469 192.648438 86.019531 188.527344 86.65625 C 165.929688 90.144531 148.75 109.28125 144.976562 131.425781 C 143.988281 137.246094 143.710938 143.25 144.554688 149.105469 C 145.148438 153.207031 146.316406 156.84375 147.964844 160.058594 C 133.070312 157.101562 117.761719 165.183594 112.121094 179.84375 C 107.539062 191.75 110.722656 203.972656 118.605469 212.628906 C 103.226562 208.753906 87.023438 216.886719 81.183594 232.058594 C 75.078125 247.933594 82.550781 265.691406 97.914062 272.527344 L 97.890625 272.578125 C 99.707031 273.378906 113.566406 279.3125 135.554688 283.894531 C 145.839844 286.09375 156.289062 287.628906 166.847656 288.484375 C 173.546875 289.03125 180.296875 289.300781 187.070312 289.300781 C 187.214844 289.300781 187.363281 289.300781 187.511719 289.300781 C 187.660156 289.300781 187.808594 289.300781 187.957031 289.300781 C 194.726562 289.300781 201.476562 289.03125 208.179688 288.484375 C 218.734375 287.628906 229.183594 286.09375 239.46875 283.894531 C 261.460938 279.3125 275.316406 273.378906 277.132812 272.578125 L 277.113281 272.527344 C 292.472656 265.691406 299.945312 247.933594 293.839844 232.058594 "/></g><path style=" stroke:none;fill-rule:nonzero;fill:#ededed;fill-opacity:1;" d="M 211.515625 205.683594 L 219.519531 205.683594 L 219.519531 197.734375 L 211.515625 197.734375 L 211.515625 205.683594 "/><path style=" stroke:none;fill-rule:nonzero;fill:#ededed;fill-opacity:1;" d="M 203.511719 197.734375 L 211.515625 197.734375 L 211.515625 189.785156 L 203.511719 189.785156 L 203.511719 197.734375 "/><path style=" stroke:none;fill-rule:nonzero;fill:#ededed;fill-opacity:1;" d="M 195.503906 189.785156 L 203.511719 189.785156 L 203.511719 181.835938 L 195.503906 181.835938 L 195.503906 189.785156 "/><path style=" stroke:none;fill-rule:nonzero;fill:#ededed;fill-opacity:1;" d="M 107.449219 205.683594 L 115.453125 205.683594 L 115.453125 197.734375 L 107.449219 197.734375 L 107.449219 205.683594 "/><path style=" stroke:none;fill-rule:nonzero;fill:#ededed;fill-opacity:1;" d="M 99.445312 197.734375 L 107.449219 197.734375 L 107.449219 189.785156 L 99.445312 189.785156 L 99.445312 197.734375 "/><path style=" stroke:none;fill-rule:nonzero;fill:#ededed;fill-opacity:1;" d="M 91.441406 189.785156 L 99.445312 189.785156 L 99.445312 181.835938 L 91.441406 181.835938 L 91.441406 189.785156 "/><g clip-rule="nonzero" clip-path="url(#f389845b66)"><path style=" stroke:none;fill-rule:nonzero;fill:#000000;fill-opacity:1;" d="M 91.441406 189.785156 L 99.445312 189.785156 L 99.445312 197.734375 L 107.449219 197.734375 L 107.449219 205.683594 L 115.453125 205.683594 L 115.453125 197.734375 L 107.449219 197.734375 L 107.449219 189.785156 L 99.445312 189.785156 L 99.445312 181.835938 L 91.441406 181.835938 Z M 195.503906 189.785156 C 197.351562 189.785156 201.625 189.785156 203.511719 189.785156 L 203.511719 197.734375 C 205.347656 197.734375 209.640625 197.734375 211.515625 197.734375 L 211.515625 205.683594 L 219.519531 205.683594 L 219.519531 197.734375 C 217.523438 197.734375 213.507812 197.734375 211.515625 197.734375 L 211.515625 189.785156 C 209.675781 189.785156 205.390625 189.785156 203.511719 189.785156 L 203.511719 181.835938 L 195.503906 181.835938 Z M 291.566406 173.886719 L 291.566406 181.835938 C 284.433594 181.835938 274.679688 181.835938 267.550781 181.835938 L 267.550781 189.785156 L 259.546875 189.785156 L 259.546875 197.734375 L 251.539062 197.734375 L 251.539062 205.683594 L 243.535156 205.683594 L 243.535156 213.632812 C 230.621094 213.632812 216.410156 213.632812 203.511719 213.632812 C 203.511719 211.785156 203.511719 207.566406 203.511719 205.683594 L 195.503906 205.683594 L 195.503906 197.734375 L 187.5 197.734375 C 187.5 195.75 187.5 191.765625 187.5 189.785156 L 179.496094 189.785156 L 179.496094 181.835938 C 175.503906 181.835938 167.472656 181.835938 163.484375 181.835938 L 163.484375 189.785156 L 155.480469 189.785156 L 155.480469 197.734375 L 147.476562 197.734375 L 147.476562 205.683594 L 139.46875 205.683594 L 139.46875 213.632812 L 99.445312 213.632812 L 99.445312 205.683594 L 91.441406 205.683594 L 91.441406 197.734375 L 83.433594 197.734375 L 83.433594 189.785156 L 75.429688 189.785156 L 75.429688 173.886719 L 291.566406 173.886719 "/></g><path style=" stroke:none;fill-rule:nonzero;fill:#000000;fill-opacity:1;" d="M 299.570312 189.785156 L 291.566406 189.785156 L 291.566406 181.835938 L 299.570312 181.835938 L 299.570312 189.785156 "/></g></svg>