<svg xmlns="http://www.w3.org/2000/svg" xmlns:xlink="http://www.w3.org/1999/xlink" width="500" zoomAndPan="magnify" viewBox="0 0 375 374.999991" height="500" preserveAspectRatio="xMidYMid meet" version="1.2"><defs><clipPath id="70dda84277"><path d="M 16 139.667969 L 119 139.667969 L 119 235.667969 L 16 235.667969 Z M 16 139.667969 "/></clipPath><clipPath id="7bf77b0f00"><path d="M 15 181.113281 L 117 181.113281 L 117 199.863281 L 15 199.863281 Z M 15 181.113281 "/></clipPath><clipPath id="76e525f528"><path d="M 116 184 L 120.609375 184 L 120.609375 189 L 116 189 Z M 116 184 "/></clipPath></defs><g id="01708532cd"><g clip-rule="nonzero" clip-path="url(#70dda84277)"><path style=" stroke:none;fill-rule:nonzero;fill:#583333;fill-opacity:1;" d="M 64.3125 143.808594 C 64.113281 143.941406 63.820312 144.140625 63.453125 144.394531 C 63.089844 144.652344 62.648438 144.976562 62.15625 145.355469 C 61.664062 145.738281 61.117188 146.179688 60.535156 146.679688 C 59.953125 147.179688 59.339844 147.738281 58.714844 148.351562 C 58.085938 148.96875 57.457031 149.644531 56.832031 150.371094 C 56.207031 151.097656 55.597656 151.875 55.027344 152.703125 C 54.453125 153.527344 53.917969 154.394531 53.441406 155.296875 C 52.957031 156.191406 52.539062 157.121094 52.1875 158.058594 C 52.007812 158.527344 51.855469 159.003906 51.714844 159.46875 C 51.648438 159.707031 51.582031 159.949219 51.519531 160.179688 C 51.464844 160.414062 51.40625 160.648438 51.355469 160.878906 C 50.953125 162.746094 50.855469 164.542969 50.941406 166.066406 C 50.945312 166.257812 50.96875 166.445312 50.980469 166.628906 C 50.988281 166.71875 50.992188 166.808594 51 166.898438 C 51.007812 166.984375 51.019531 167.074219 51.027344 167.160156 C 51.046875 167.335938 51.0625 167.503906 51.082031 167.667969 C 51.105469 167.832031 51.128906 167.988281 51.148438 168.144531 C 51.191406 168.453125 51.25 168.738281 51.292969 169.003906 C 51.347656 169.265625 51.398438 169.507812 51.441406 169.726562 C 51.496094 169.945312 51.542969 170.136719 51.582031 170.308594 C 51.621094 170.476562 51.664062 170.617188 51.695312 170.734375 C 51.757812 170.964844 51.792969 171.089844 51.792969 171.089844 L 51.625 171.136719 C 51.625 171.136719 51.609375 171.105469 51.578125 171.050781 C 51.546875 170.996094 51.5 170.914062 51.445312 170.804688 C 51.386719 170.695312 51.3125 170.5625 51.234375 170.402344 C 51.15625 170.238281 51.070312 170.050781 50.972656 169.835938 C 50.878906 169.625 50.789062 169.386719 50.683594 169.125 C 50.632812 168.992188 50.585938 168.855469 50.535156 168.710938 C 50.488281 168.570312 50.433594 168.421875 50.386719 168.265625 C 50.1875 167.644531 50.015625 166.925781 49.871094 166.128906 C 49.839844 165.929688 49.808594 165.722656 49.777344 165.511719 C 49.753906 165.304688 49.730469 165.089844 49.703125 164.871094 C 49.683594 164.652344 49.671875 164.429688 49.65625 164.203125 C 49.644531 163.976562 49.640625 163.746094 49.632812 163.511719 C 49.625 162.574219 49.6875 161.578125 49.847656 160.558594 C 49.886719 160.304688 49.933594 160.050781 49.984375 159.792969 C 50.015625 159.664062 50.042969 159.535156 50.070312 159.40625 C 50.101562 159.285156 50.125 159.171875 50.15625 159.042969 C 50.191406 158.910156 50.226562 158.777344 50.257812 158.644531 C 50.292969 158.507812 50.332031 158.375 50.367188 158.25 C 50.449219 157.992188 50.527344 157.734375 50.617188 157.480469 C 50.960938 156.453125 51.410156 155.449219 51.917969 154.484375 C 52.179688 154.003906 52.453125 153.53125 52.742188 153.074219 L 52.960938 152.730469 L 53.191406 152.398438 C 53.339844 152.175781 53.5 151.960938 53.65625 151.742188 C 53.8125 151.527344 53.976562 151.320312 54.136719 151.109375 C 54.300781 150.902344 54.472656 150.707031 54.636719 150.503906 C 54.804688 150.304688 54.976562 150.113281 55.144531 149.921875 L 55.210938 149.847656 L 55.230469 149.824219 L 55.253906 149.800781 L 55.285156 149.765625 L 55.410156 149.636719 C 55.496094 149.546875 55.578125 149.460938 55.664062 149.371094 C 55.75 149.285156 55.824219 149.203125 55.917969 149.109375 C 56.007812 149.019531 56.097656 148.933594 56.1875 148.84375 C 56.363281 148.664062 56.542969 148.492188 56.722656 148.332031 C 57.078125 148.007812 57.429688 147.691406 57.785156 147.402344 C 57.960938 147.257812 58.140625 147.117188 58.3125 146.980469 C 58.484375 146.839844 58.65625 146.707031 58.832031 146.582031 C 59.175781 146.328125 59.515625 146.089844 59.84375 145.867188 C 60.503906 145.425781 61.128906 145.054688 61.691406 144.742188 C 62.257812 144.4375 62.761719 144.1875 63.183594 144 C 63.601562 143.808594 63.941406 143.683594 64.171875 143.589844 C 64.285156 143.546875 64.378906 143.515625 64.4375 143.496094 C 64.5 143.472656 64.527344 143.464844 64.527344 143.464844 L 64.621094 143.609375 C 64.621094 143.609375 64.515625 143.679688 64.3125 143.808594 Z M 45.519531 177.667969 C 45.359375 177.761719 45.128906 177.890625 44.832031 178.058594 C 44.6875 178.144531 44.527344 178.238281 44.351562 178.339844 C 44.179688 178.449219 43.988281 178.550781 43.789062 178.675781 C 43.59375 178.796875 43.378906 178.921875 43.164062 179.0625 C 43.054688 179.132812 42.941406 179.199219 42.828125 179.277344 C 42.714844 179.351562 42.597656 179.425781 42.480469 179.503906 C 42.015625 179.820312 41.515625 180.164062 41.019531 180.558594 C 40.890625 180.65625 40.765625 180.753906 40.640625 180.859375 C 40.515625 180.960938 40.386719 181.0625 40.265625 181.167969 C 40.140625 181.28125 40.019531 181.390625 39.890625 181.5 C 39.765625 181.609375 39.648438 181.730469 39.523438 181.847656 C 39.464844 181.90625 39.402344 181.964844 39.339844 182.023438 C 39.28125 182.085938 39.222656 182.148438 39.164062 182.210938 C 39.105469 182.269531 39.046875 182.332031 38.988281 182.394531 L 38.898438 182.488281 L 38.8125 182.585938 C 38.699219 182.714844 38.585938 182.84375 38.472656 182.972656 C 38.367188 183.109375 38.261719 183.246094 38.152344 183.382812 C 37.734375 183.9375 37.363281 184.527344 37.050781 185.144531 C 36.753906 185.769531 36.519531 186.421875 36.34375 187.082031 C 36.308594 187.25 36.273438 187.417969 36.238281 187.582031 C 36.222656 187.667969 36.199219 187.75 36.1875 187.832031 C 36.175781 187.917969 36.164062 188 36.152344 188.085938 C 36.132812 188.253906 36.101562 188.417969 36.085938 188.585938 C 36.078125 188.753906 36.0625 188.921875 36.050781 189.085938 C 36.042969 189.167969 36.039062 189.253906 36.03125 189.332031 C 36.03125 189.417969 36.03125 189.5 36.03125 189.582031 C 36.035156 189.746094 36.03125 189.910156 36.027344 190.070312 C 36.03125 190.398438 36.066406 190.714844 36.078125 191.03125 C 36.109375 191.34375 36.152344 191.644531 36.179688 191.945312 C 36.222656 192.238281 36.28125 192.523438 36.324219 192.800781 C 36.332031 192.871094 36.34375 192.9375 36.355469 193.007812 C 36.367188 193.074219 36.382812 193.140625 36.398438 193.207031 C 36.425781 193.335938 36.457031 193.464844 36.480469 193.59375 C 36.539062 193.84375 36.578125 194.085938 36.640625 194.308594 C 36.699219 194.535156 36.757812 194.742188 36.800781 194.941406 C 36.828125 195.039062 36.847656 195.132812 36.871094 195.226562 C 36.894531 195.316406 36.921875 195.398438 36.941406 195.480469 C 37.128906 196.128906 37.222656 196.515625 37.222656 196.515625 C 37.222656 196.515625 36.980469 196.207031 36.589844 195.640625 C 36.542969 195.570312 36.488281 195.496094 36.4375 195.417969 C 36.390625 195.335938 36.339844 195.25 36.285156 195.160156 C 36.179688 194.984375 36.066406 194.789062 35.945312 194.582031 C 35.917969 194.527344 35.886719 194.476562 35.855469 194.421875 C 35.824219 194.367188 35.800781 194.308594 35.769531 194.253906 C 35.714844 194.136719 35.65625 194.019531 35.597656 193.898438 C 35.539062 193.773438 35.480469 193.648438 35.421875 193.519531 C 35.390625 193.457031 35.359375 193.390625 35.328125 193.324219 C 35.304688 193.253906 35.277344 193.1875 35.25 193.117188 C 35.191406 192.976562 35.140625 192.835938 35.085938 192.6875 C 35.03125 192.542969 34.96875 192.394531 34.921875 192.238281 C 34.828125 191.929688 34.734375 191.605469 34.644531 191.269531 C 34.605469 191.097656 34.574219 190.921875 34.539062 190.746094 C 34.519531 190.660156 34.503906 190.570312 34.484375 190.480469 C 34.46875 190.394531 34.449219 190.300781 34.441406 190.210938 C 34.417969 190.027344 34.394531 189.839844 34.375 189.652344 C 34.367188 189.558594 34.355469 189.460938 34.347656 189.367188 C 34.34375 189.273438 34.339844 189.175781 34.335938 189.078125 C 34.332031 188.882812 34.324219 188.6875 34.320312 188.492188 C 34.324219 188.292969 34.34375 188.09375 34.355469 187.890625 C 34.359375 187.792969 34.367188 187.691406 34.375 187.589844 C 34.382812 187.488281 34.402344 187.386719 34.414062 187.285156 C 34.445312 187.082031 34.480469 186.878906 34.511719 186.675781 C 34.683594 185.863281 34.953125 185.054688 35.320312 184.296875 C 35.695312 183.539062 36.167969 182.839844 36.691406 182.207031 C 36.824219 182.054688 36.960938 181.902344 37.09375 181.75 C 37.238281 181.609375 37.378906 181.464844 37.519531 181.324219 L 37.625 181.21875 L 37.734375 181.121094 C 37.808594 181.058594 37.882812 180.992188 37.957031 180.929688 C 38.03125 180.863281 38.101562 180.800781 38.175781 180.738281 C 38.253906 180.675781 38.328125 180.617188 38.402344 180.558594 C 39 180.078125 39.621094 179.683594 40.222656 179.347656 C 40.824219 179.007812 41.414062 178.742188 41.964844 178.519531 C 42.515625 178.296875 43.03125 178.125 43.492188 177.992188 C 43.953125 177.859375 44.359375 177.765625 44.699219 177.699219 C 45.035156 177.632812 45.300781 177.589844 45.480469 177.566406 C 45.664062 177.539062 45.761719 177.53125 45.761719 177.53125 C 45.761719 177.53125 45.675781 177.578125 45.519531 177.667969 Z M 31.1875 202.757812 C 31.027344 202.847656 30.796875 202.980469 30.503906 203.148438 C 30.355469 203.230469 30.195312 203.328125 30.019531 203.425781 C 29.847656 203.535156 29.65625 203.636719 29.457031 203.761719 C 29.261719 203.886719 29.046875 204.007812 28.832031 204.152344 C 28.722656 204.222656 28.609375 204.289062 28.496094 204.363281 C 28.382812 204.4375 28.269531 204.515625 28.152344 204.59375 C 27.683594 204.910156 27.183594 205.253906 26.6875 205.644531 C 26.5625 205.742188 26.433594 205.839844 26.3125 205.945312 C 26.1875 206.046875 26.058594 206.148438 25.933594 206.257812 C 25.8125 206.371094 25.6875 206.480469 25.5625 206.589844 C 25.433594 206.699219 25.316406 206.820312 25.195312 206.933594 C 25.132812 206.992188 25.070312 207.050781 25.011719 207.109375 C 24.953125 207.171875 24.894531 207.234375 24.835938 207.296875 C 24.773438 207.359375 24.714844 207.417969 24.65625 207.480469 L 24.566406 207.574219 L 24.484375 207.671875 C 24.371094 207.800781 24.257812 207.929688 24.140625 208.0625 C 24.035156 208.199219 23.929688 208.332031 23.820312 208.46875 C 23.40625 209.023438 23.03125 209.613281 22.722656 210.234375 C 22.421875 210.859375 22.191406 211.507812 22.011719 212.167969 C 21.976562 212.339844 21.941406 212.503906 21.90625 212.671875 C 21.890625 212.753906 21.867188 212.835938 21.855469 212.921875 C 21.84375 213.003906 21.835938 213.089844 21.824219 213.171875 C 21.800781 213.339844 21.769531 213.507812 21.753906 213.671875 C 21.746094 213.839844 21.730469 214.007812 21.71875 214.171875 C 21.710938 214.257812 21.707031 214.339844 21.699219 214.421875 C 21.699219 214.503906 21.699219 214.589844 21.699219 214.667969 C 21.703125 214.835938 21.703125 215 21.699219 215.160156 C 21.703125 215.484375 21.738281 215.804688 21.746094 216.117188 C 21.777344 216.429688 21.820312 216.734375 21.851562 217.03125 C 21.890625 217.328125 21.949219 217.613281 21.992188 217.890625 C 22.003906 217.957031 22.011719 218.027344 22.023438 218.09375 C 22.035156 218.164062 22.050781 218.230469 22.066406 218.292969 C 22.097656 218.425781 22.125 218.554688 22.152344 218.679688 C 22.207031 218.933594 22.246094 219.175781 22.3125 219.398438 C 22.367188 219.621094 22.425781 219.832031 22.472656 220.03125 C 22.496094 220.128906 22.519531 220.222656 22.539062 220.3125 C 22.5625 220.40625 22.589844 220.488281 22.613281 220.570312 C 22.800781 221.214844 22.890625 221.601562 22.890625 221.601562 C 22.890625 221.601562 22.648438 221.296875 22.257812 220.730469 C 22.210938 220.660156 22.15625 220.585938 22.105469 220.503906 C 22.058594 220.421875 22.007812 220.339844 21.953125 220.25 C 21.847656 220.070312 21.738281 219.878906 21.617188 219.667969 C 21.585938 219.617188 21.554688 219.5625 21.523438 219.511719 C 21.496094 219.453125 21.46875 219.398438 21.441406 219.339844 C 21.382812 219.226562 21.328125 219.105469 21.269531 218.984375 C 21.207031 218.863281 21.148438 218.738281 21.089844 218.609375 C 21.058594 218.542969 21.027344 218.480469 21 218.410156 C 20.972656 218.34375 20.945312 218.273438 20.917969 218.203125 C 20.863281 218.066406 20.808594 217.921875 20.753906 217.777344 C 20.699219 217.628906 20.636719 217.484375 20.589844 217.328125 C 20.5 217.015625 20.402344 216.691406 20.3125 216.355469 C 20.273438 216.1875 20.242188 216.011719 20.207031 215.835938 C 20.1875 215.746094 20.171875 215.660156 20.152344 215.570312 C 20.136719 215.480469 20.117188 215.390625 20.109375 215.296875 C 20.085938 215.113281 20.066406 214.929688 20.046875 214.742188 C 20.035156 214.644531 20.027344 214.550781 20.015625 214.457031 C 20.011719 214.359375 20.007812 214.261719 20.007812 214.167969 C 20 213.972656 19.992188 213.777344 19.992188 213.578125 C 19.996094 213.382812 20.011719 213.179688 20.023438 212.980469 C 20.03125 212.878906 20.039062 212.777344 20.042969 212.675781 C 20.050781 212.574219 20.070312 212.476562 20.085938 212.375 C 20.117188 212.171875 20.148438 211.96875 20.179688 211.761719 C 20.355469 210.949219 20.621094 210.144531 20.988281 209.382812 C 21.367188 208.628906 21.835938 207.925781 22.359375 207.296875 C 22.496094 207.144531 22.628906 206.988281 22.761719 206.839844 C 22.90625 206.695312 23.046875 206.554688 23.1875 206.414062 L 23.292969 206.308594 L 23.40625 206.210938 C 23.480469 206.144531 23.550781 206.078125 23.625 206.015625 C 23.699219 205.953125 23.773438 205.886719 23.847656 205.824219 C 23.921875 205.765625 23.996094 205.707031 24.074219 205.644531 C 24.667969 205.167969 25.289062 204.773438 25.890625 204.4375 C 26.492188 204.097656 27.082031 203.832031 27.632812 203.605469 C 28.1875 203.386719 28.703125 203.214844 29.164062 203.082031 C 29.625 202.949219 30.03125 202.855469 30.367188 202.785156 C 30.703125 202.71875 30.96875 202.675781 31.152344 202.652344 C 31.332031 202.628906 31.429688 202.617188 31.429688 202.617188 C 31.429688 202.617188 31.347656 202.667969 31.1875 202.757812 Z M 117.714844 208.429688 C 115.613281 202.972656 110.660156 199.457031 105.210938 198.925781 C 105 199.105469 104.769531 199.28125 104.527344 199.460938 C 104.054688 199.800781 103.519531 200.128906 102.9375 200.429688 C 102.355469 200.726562 101.726562 201 101.066406 201.242188 C 100.40625 201.484375 99.710938 201.6875 99.007812 201.875 C 98.652344 201.960938 98.296875 202.054688 97.933594 202.125 C 97.753906 202.160156 97.574219 202.203125 97.394531 202.238281 L 96.851562 202.335938 C 96.667969 202.371094 96.488281 202.398438 96.304688 202.425781 C 96.125 202.453125 95.945312 202.480469 95.761719 202.507812 C 95.398438 202.558594 95.039062 202.605469 94.679688 202.644531 C 94.320312 202.683594 93.96875 202.722656 93.613281 202.753906 C 93.261719 202.777344 92.917969 202.808594 92.574219 202.832031 C 92.230469 202.851562 91.894531 202.871094 91.566406 202.886719 C 91.238281 202.898438 90.917969 202.910156 90.601562 202.921875 C 90.289062 202.933594 89.984375 202.933594 89.691406 202.9375 C 89.394531 202.945312 89.113281 202.949219 88.839844 202.945312 C 88.566406 202.945312 88.304688 202.941406 88.054688 202.941406 C 87.804688 202.941406 87.570312 202.929688 87.347656 202.925781 C 86.90625 202.917969 86.519531 202.910156 86.203125 202.894531 C 85.566406 202.867188 85.203125 202.855469 85.203125 202.855469 C 85.203125 202.855469 85.566406 202.839844 86.203125 202.820312 C 86.519531 202.8125 86.90625 202.789062 87.347656 202.765625 C 87.566406 202.753906 87.804688 202.746094 88.050781 202.730469 C 88.296875 202.710938 88.558594 202.695312 88.828125 202.675781 C 89.101562 202.65625 89.382812 202.632812 89.675781 202.605469 C 89.964844 202.578125 90.265625 202.558594 90.578125 202.523438 C 90.886719 202.488281 91.203125 202.453125 91.527344 202.417969 C 91.851562 202.375 92.183594 202.332031 92.519531 202.289062 C 92.855469 202.242188 93.195312 202.1875 93.539062 202.132812 C 93.878906 202.078125 94.226562 202.011719 94.578125 201.953125 C 94.925781 201.882812 95.273438 201.8125 95.625 201.738281 C 95.796875 201.699219 95.972656 201.65625 96.148438 201.617188 C 96.324219 201.578125 96.496094 201.535156 96.667969 201.492188 L 97.191406 201.355469 C 97.363281 201.3125 97.535156 201.257812 97.703125 201.207031 C 98.046875 201.113281 98.382812 201 98.714844 200.894531 C 99.378906 200.664062 100.019531 200.421875 100.621094 200.148438 C 104.867188 198.207031 106.792969 194.1875 106.902344 189.609375 C 106.945312 187.664062 106.601562 185.714844 105.90625 183.898438 C 103.683594 178.125 98.269531 174.523438 92.449219 174.328125 C 92.40625 174.484375 92.355469 174.644531 92.292969 174.808594 C 92.109375 175.296875 91.835938 175.8125 91.46875 176.316406 C 91.101562 176.816406 90.648438 177.308594 90.113281 177.746094 C 90.050781 177.804688 89.980469 177.855469 89.910156 177.90625 C 89.84375 177.960938 89.773438 178.011719 89.703125 178.066406 C 89.632812 178.117188 89.558594 178.167969 89.488281 178.222656 C 89.417969 178.273438 89.339844 178.320312 89.265625 178.371094 C 89.117188 178.464844 88.964844 178.5625 88.8125 178.65625 C 88.652344 178.746094 88.496094 178.832031 88.335938 178.921875 C 88.253906 178.964844 88.175781 179.011719 88.09375 179.050781 C 88.007812 179.089844 87.925781 179.128906 87.84375 179.167969 C 87.675781 179.246094 87.507812 179.324219 87.335938 179.40625 C 87.164062 179.472656 86.992188 179.542969 86.816406 179.613281 C 86.640625 179.679688 86.46875 179.753906 86.289062 179.808594 C 86.109375 179.867188 85.929688 179.929688 85.75 179.988281 C 85.660156 180.015625 85.570312 180.046875 85.480469 180.074219 L 85.207031 180.152344 C 84.839844 180.25 84.476562 180.359375 84.105469 180.433594 C 83.371094 180.609375 82.625 180.738281 81.894531 180.851562 C 81.527344 180.902344 81.164062 180.949219 80.804688 180.996094 C 80.445312 181.039062 80.089844 181.066406 79.742188 181.101562 C 79.566406 181.117188 79.394531 181.132812 79.222656 181.148438 C 79.050781 181.160156 78.878906 181.167969 78.710938 181.175781 C 78.375 181.195312 78.046875 181.214844 77.726562 181.234375 C 77.082031 181.253906 76.476562 181.265625 75.917969 181.277344 C 75.359375 181.273438 74.847656 181.273438 74.394531 181.269531 C 74.167969 181.269531 73.953125 181.261719 73.757812 181.253906 C 73.5625 181.246094 73.382812 181.238281 73.21875 181.234375 C 72.570312 181.210938 72.199219 181.199219 72.199219 181.199219 C 72.199219 181.199219 72.570312 181.183594 73.21875 181.160156 C 73.382812 181.152344 73.5625 181.148438 73.757812 181.140625 C 73.953125 181.132812 74.164062 181.125 74.390625 181.109375 C 74.84375 181.078125 75.351562 181.046875 75.90625 181.007812 C 76.460938 180.953125 77.058594 180.894531 77.695312 180.835938 C 78.007812 180.792969 78.332031 180.75 78.664062 180.707031 C 78.828125 180.6875 78.996094 180.664062 79.164062 180.640625 C 79.332031 180.613281 79.503906 180.585938 79.671875 180.558594 C 80.015625 180.5 80.363281 180.445312 80.710938 180.382812 C 81.058594 180.308594 81.414062 180.234375 81.765625 180.160156 C 82.472656 179.996094 83.183594 179.820312 83.878906 179.601562 C 84.234375 179.503906 84.574219 179.371094 84.914062 179.253906 L 85.167969 179.160156 C 85.253906 179.128906 85.335938 179.09375 85.417969 179.058594 C 85.585938 178.992188 85.75 178.921875 85.914062 178.855469 C 86.082031 178.789062 86.234375 178.710938 86.394531 178.632812 C 86.550781 178.558594 86.707031 178.480469 86.867188 178.40625 C 87.015625 178.324219 87.164062 178.238281 87.3125 178.15625 C 87.386719 178.113281 87.457031 178.074219 87.53125 178.03125 C 87.605469 177.992188 87.671875 177.941406 87.742188 177.898438 C 87.882812 177.808594 88.019531 177.71875 88.15625 177.628906 C 95.257812 172.554688 85.410156 164.804688 81.234375 161.46875 C 76.839844 157.960938 69.339844 154.085938 69.664062 147.679688 C 69.972656 143.433594 74.425781 139.660156 74.425781 139.660156 L 74.097656 139.660156 L 74.097656 139.664062 C 72.140625 139.6875 70.175781 139.824219 68.238281 140.121094 C 57.625 141.761719 49.550781 150.75 47.78125 161.152344 C 47.316406 163.886719 47.1875 166.710938 47.582031 169.460938 C 47.859375 171.386719 48.410156 173.097656 49.183594 174.605469 C 42.1875 173.214844 34.996094 177.015625 32.34375 183.898438 C 30.191406 189.492188 31.6875 195.234375 35.390625 199.304688 C 28.167969 197.480469 20.554688 201.300781 17.8125 208.429688 C 14.941406 215.886719 18.453125 224.230469 25.671875 227.441406 L 25.660156 227.464844 C 26.515625 227.84375 33.023438 230.628906 43.355469 232.78125 C 48.1875 233.816406 53.09375 234.535156 58.054688 234.9375 C 61.203125 235.195312 64.375 235.320312 67.554688 235.320312 C 67.625 235.320312 67.695312 235.320312 67.761719 235.320312 C 67.832031 235.320312 67.902344 235.320312 67.972656 235.320312 C 71.152344 235.320312 74.324219 235.195312 77.472656 234.9375 C 82.429688 234.535156 87.339844 233.816406 92.171875 232.78125 C 102.503906 230.628906 109.011719 227.84375 109.867188 227.464844 L 109.855469 227.441406 C 117.074219 224.230469 120.582031 215.886719 117.714844 208.429688 "/></g><path style=" stroke:none;fill-rule:nonzero;fill:#ededed;fill-opacity:1;" d="M 79.015625 196.101562 L 82.777344 196.101562 L 82.777344 192.351562 L 79.015625 192.351562 L 79.015625 196.101562 "/><path style=" stroke:none;fill-rule:nonzero;fill:#ededed;fill-opacity:1;" d="M 75.253906 192.351562 L 79.015625 192.351562 L 79.015625 188.601562 L 75.253906 188.601562 L 75.253906 192.351562 "/><path style=" stroke:none;fill-rule:nonzero;fill:#ededed;fill-opacity:1;" d="M 71.492188 188.601562 L 75.253906 188.601562 L 75.253906 184.855469 L 71.492188 184.855469 L 71.492188 188.601562 "/><path style=" stroke:none;fill-rule:nonzero;fill:#ededed;fill-opacity:1;" d="M 30.128906 196.101562 L 33.890625 196.101562 L 33.890625 192.351562 L 30.128906 192.351562 L 30.128906 196.101562 "/><path style=" stroke:none;fill-rule:nonzero;fill:#ededed;fill-opacity:1;" d="M 26.367188 192.351562 L 30.128906 192.351562 L 30.128906 188.601562 L 26.367188 188.601562 L 26.367188 192.351562 "/><path style=" stroke:none;fill-rule:nonzero;fill:#ededed;fill-opacity:1;" d="M 22.609375 188.601562 L 26.367188 188.601562 L 26.367188 184.855469 L 22.609375 184.855469 L 22.609375 188.601562 "/><g clip-rule="nonzero" clip-path="url(#7bf77b0f00)"><path style=" stroke:none;fill-rule:nonzero;fill:#000000;fill-opacity:1;" d="M 22.609375 188.601562 L 26.367188 188.601562 L 26.367188 192.351562 L 30.128906 192.351562 L 30.128906 196.101562 L 33.890625 196.101562 L 33.890625 192.351562 L 30.128906 192.351562 L 30.128906 188.601562 L 26.367188 188.601562 L 26.367188 184.855469 L 22.609375 184.855469 Z M 71.492188 188.601562 C 72.363281 188.601562 74.367188 188.601562 75.253906 188.601562 L 75.253906 192.351562 C 76.117188 192.351562 78.132812 192.351562 79.015625 192.351562 L 79.015625 196.101562 L 82.777344 196.101562 L 82.777344 192.351562 C 81.839844 192.351562 79.953125 192.351562 79.015625 192.351562 L 79.015625 188.601562 C 78.152344 188.601562 76.136719 188.601562 75.253906 188.601562 L 75.253906 184.855469 L 71.492188 184.855469 Z M 116.621094 181.105469 L 116.621094 184.855469 C 113.269531 184.855469 108.6875 184.855469 105.339844 184.855469 L 105.339844 188.601562 L 101.578125 188.601562 L 101.578125 192.351562 L 97.816406 192.351562 L 97.816406 196.101562 L 94.058594 196.101562 L 94.058594 199.851562 C 87.992188 199.851562 81.3125 199.851562 75.253906 199.851562 C 75.253906 198.980469 75.253906 196.992188 75.253906 196.101562 L 71.492188 196.101562 L 71.492188 192.351562 L 67.734375 192.351562 C 67.734375 191.417969 67.734375 189.539062 67.734375 188.601562 L 63.972656 188.601562 L 63.972656 184.855469 C 62.097656 184.855469 58.328125 184.855469 56.453125 184.855469 L 56.453125 188.601562 L 52.691406 188.601562 L 52.691406 192.351562 L 48.933594 192.351562 L 48.933594 196.101562 L 45.171875 196.101562 L 45.171875 199.851562 L 26.367188 199.851562 L 26.367188 196.101562 L 22.609375 196.101562 L 22.609375 192.351562 L 18.847656 192.351562 L 18.847656 188.601562 L 15.085938 188.601562 L 15.085938 181.105469 L 116.621094 181.105469 "/></g><g clip-rule="nonzero" clip-path="url(#76e525f528)"><path style=" stroke:none;fill-rule:nonzero;fill:#000000;fill-opacity:1;" d="M 120.378906 188.601562 L 116.621094 188.601562 L 116.621094 184.855469 L 120.378906 184.855469 L 120.378906 188.601562 "/></g><g style="fill:#000000;fill-opacity:1;"><g transform="translate(130.350728, 214.809782)"><path style="stroke:none" d="M 12.765625 0.734375 C 10.796875 0.734375 8.847656 0.5625 6.921875 0.21875 C 5.003906 -0.125 3.4375 -0.59375 2.21875 -1.1875 L 2.21875 -5.71875 C 5.375 -4.238281 8.773438 -3.5 12.421875 -3.5 C 17.546875 -3.5 20.109375 -5.222656 20.109375 -8.671875 C 20.109375 -9.859375 19.828125 -10.8125 19.265625 -11.53125 C 18.710938 -12.25 17.910156 -12.878906 16.859375 -13.421875 C 15.804688 -13.972656 14.097656 -14.722656 11.734375 -15.671875 C 8.472656 -16.984375 6.117188 -18.425781 4.671875 -20 C 3.234375 -21.582031 2.515625 -23.570312 2.515625 -25.96875 C 2.515625 -27.78125 3.003906 -29.382812 3.984375 -30.78125 C 4.972656 -32.175781 6.351562 -33.257812 8.125 -34.03125 C 9.90625 -34.800781 11.945312 -35.1875 14.25 -35.1875 C 16.113281 -35.1875 17.800781 -35.035156 19.3125 -34.734375 C 20.820312 -34.441406 22.300781 -33.96875 23.75 -33.3125 L 23.75 -28.984375 C 20.894531 -30.265625 18.003906 -30.90625 15.078125 -30.90625 C 12.710938 -30.90625 10.90625 -30.476562 9.65625 -29.625 C 8.40625 -28.769531 7.78125 -27.550781 7.78125 -25.96875 C 7.78125 -24.882812 8.050781 -23.972656 8.59375 -23.234375 C 9.132812 -22.492188 9.9375 -21.835938 11 -21.265625 C 12.070312 -20.691406 13.660156 -19.976562 15.765625 -19.125 C 18.097656 -18.164062 19.9375 -17.257812 21.28125 -16.40625 C 22.632812 -15.550781 23.660156 -14.507812 24.359375 -13.28125 C 25.066406 -12.050781 25.421875 -10.515625 25.421875 -8.671875 C 25.421875 -5.679688 24.351562 -3.363281 22.21875 -1.71875 C 20.082031 -0.0820312 16.929688 0.734375 12.765625 0.734375 Z M 12.765625 0.734375 "/></g></g><g style="fill:#000000;fill-opacity:1;"><g transform="translate(158.191131, 214.809782)"><path style="stroke:none" d="M 12.328125 0.734375 C 9.921875 0.734375 8.066406 0.046875 6.765625 -1.328125 C 5.472656 -2.710938 4.828125 -4.664062 4.828125 -7.1875 L 4.828125 -19.8125 L 1.234375 -19.8125 L 1.234375 -23.65625 L 4.828125 -23.65625 L 4.828125 -30.75 L 9.859375 -30.75 L 9.859375 -23.65625 L 15.671875 -23.65625 L 15.671875 -19.8125 L 9.859375 -19.8125 L 9.859375 -7.546875 C 9.859375 -5.960938 10.160156 -4.84375 10.765625 -4.1875 C 11.367188 -3.53125 12.476562 -3.203125 14.09375 -3.203125 C 15.050781 -3.203125 16.003906 -3.414062 16.953125 -3.84375 L 16.953125 0.09375 C 15.703125 0.519531 14.160156 0.734375 12.328125 0.734375 Z M 12.328125 0.734375 "/></g></g><g style="fill:#000000;fill-opacity:1;"><g transform="translate(176.570724, 214.809782)"><path style="stroke:none" d="M 8.234375 9.75 C 6.453125 9.75 4.972656 9.570312 3.796875 9.21875 L 3.796875 5.328125 C 4.648438 5.648438 5.703125 5.8125 6.953125 5.8125 C 8.097656 5.8125 9 5.523438 9.65625 4.953125 C 10.3125 4.378906 10.90625 3.453125 11.4375 2.171875 L 12.5625 -0.59375 L 2.21875 -23.65625 L 7.34375 -23.65625 L 15.234375 -5.46875 L 22.578125 -23.65625 L 27.703125 -23.65625 L 17.046875 2.65625 C 16.066406 5.125 14.894531 6.921875 13.53125 8.046875 C 12.164062 9.179688 10.398438 9.75 8.234375 9.75 Z M 8.234375 9.75 "/></g></g><g style="fill:#000000;fill-opacity:1;"><g transform="translate(207.416893, 214.809782)"><path style="stroke:none" d="M 3.203125 -36.421875 L 8.1875 -36.421875 L 8.1875 0 L 3.203125 0 Z M 3.203125 -36.421875 "/></g></g><g style="fill:#000000;fill-opacity:1;"><g transform="translate(220.721152, 214.809782)"><path style="stroke:none" d="M 16.21875 0.734375 C 11.84375 0.734375 8.414062 -0.351562 5.9375 -2.53125 C 3.457031 -4.71875 2.21875 -7.800781 2.21875 -11.78125 C 2.21875 -15.65625 3.328125 -18.722656 5.546875 -20.984375 C 7.765625 -23.253906 10.925781 -24.390625 15.03125 -24.390625 C 17.757812 -24.390625 20.078125 -23.875 21.984375 -22.84375 C 23.890625 -21.8125 25.328125 -20.378906 26.296875 -18.546875 C 27.265625 -16.722656 27.75 -14.648438 27.75 -12.328125 L 27.75 -9.859375 L 6.953125 -9.859375 C 7.109375 -7.617188 8.050781 -5.945312 9.78125 -4.84375 C 11.507812 -3.75 13.851562 -3.203125 16.8125 -3.203125 C 18.320312 -3.203125 19.847656 -3.34375 21.390625 -3.625 C 22.929688 -3.90625 24.296875 -4.273438 25.484375 -4.734375 L 25.484375 -0.734375 C 24.429688 -0.304688 23.039062 0.0390625 21.3125 0.3125 C 19.59375 0.59375 17.894531 0.734375 16.21875 0.734375 Z M 23.0625 -13.359375 C 23 -15.585938 22.269531 -17.316406 20.875 -18.546875 C 19.476562 -19.785156 17.5 -20.40625 14.9375 -20.40625 C 12.4375 -20.40625 10.492188 -19.765625 9.109375 -18.484375 C 7.734375 -17.203125 7.015625 -15.492188 6.953125 -13.359375 Z M 23.0625 -13.359375 "/></g></g><g style="fill:#000000;fill-opacity:1;"><g transform="translate(252.602105, 214.809782)"><path style="stroke:none" d="M 11.921875 0.734375 C 10.285156 0.734375 8.546875 0.523438 6.703125 0.109375 C 4.859375 -0.296875 3.410156 -0.84375 2.359375 -1.53125 L 2.359375 -5.765625 C 3.640625 -5.003906 5.117188 -4.382812 6.796875 -3.90625 C 8.472656 -3.4375 10.097656 -3.203125 11.671875 -3.203125 C 13.453125 -3.203125 14.753906 -3.414062 15.578125 -3.84375 C 16.398438 -4.269531 16.8125 -4.957031 16.8125 -5.90625 C 16.8125 -6.632812 16.617188 -7.21875 16.234375 -7.65625 C 15.859375 -8.101562 15.21875 -8.503906 14.3125 -8.859375 C 13.414062 -9.222656 12.0625 -9.65625 10.25 -10.15625 C 8.3125 -10.707031 6.773438 -11.269531 5.640625 -11.84375 C 4.503906 -12.425781 3.648438 -13.160156 3.078125 -14.046875 C 2.503906 -14.929688 2.21875 -16.082031 2.21875 -17.5 C 2.21875 -19.757812 3.113281 -21.472656 4.90625 -22.640625 C 6.695312 -23.804688 9.101562 -24.390625 12.125 -24.390625 C 13.695312 -24.390625 15.238281 -24.238281 16.75 -23.9375 C 18.257812 -23.644531 19.476562 -23.238281 20.40625 -22.71875 L 20.40625 -18.578125 C 19.445312 -19.140625 18.269531 -19.582031 16.875 -19.90625 C 15.476562 -20.238281 14.054688 -20.40625 12.609375 -20.40625 C 10.867188 -20.40625 9.539062 -20.191406 8.625 -19.765625 C 7.707031 -19.335938 7.25 -18.582031 7.25 -17.5 C 7.25 -16.800781 7.441406 -16.238281 7.828125 -15.8125 C 8.222656 -15.382812 8.851562 -15.015625 9.71875 -14.703125 C 10.59375 -14.398438 11.984375 -14 13.890625 -13.5 C 16.878906 -12.675781 18.957031 -11.707031 20.125 -10.59375 C 21.289062 -9.476562 21.875 -7.9375 21.875 -5.96875 C 21.875 -3.925781 21.035156 -2.296875 19.359375 -1.078125 C 17.691406 0.128906 15.210938 0.734375 11.921875 0.734375 Z M 11.921875 0.734375 "/></g></g><g style="fill:#000000;fill-opacity:1;"><g transform="translate(278.619319, 214.809782)"><path style="stroke:none" d="M 3.203125 -36.421875 L 8.1875 -36.421875 L 8.1875 -20.40625 C 10.445312 -23.0625 13.46875 -24.390625 17.25 -24.390625 C 20.40625 -24.390625 22.753906 -23.550781 24.296875 -21.875 C 25.835938 -20.207031 26.609375 -17.957031 26.609375 -15.125 L 26.609375 0 L 21.640625 0 L 21.640625 -14.640625 C 21.640625 -18.484375 19.796875 -20.40625 16.109375 -20.40625 C 14.535156 -20.40625 13.066406 -20.035156 11.703125 -19.296875 C 10.335938 -18.554688 9.164062 -17.429688 8.1875 -15.921875 L 8.1875 0 L 3.203125 0 Z M 3.203125 -36.421875 "/></g></g><g style="fill:#000000;fill-opacity:1;"><g transform="translate(310.10607, 214.809782)"><path style="stroke:none" d="M 9.65625 -29.03125 L 2.21875 -23.65625 L 2.21875 -28.4375 L 10.34375 -34.453125 L 14.6875 -34.453125 L 14.6875 0 L 9.65625 0 Z M 9.65625 -29.03125 "/></g></g><g style="fill:#000000;fill-opacity:1;"><g transform="translate(329.914636, 214.809782)"><path style="stroke:none" d="M 12.328125 0.734375 C 9.921875 0.734375 8.066406 0.046875 6.765625 -1.328125 C 5.472656 -2.710938 4.828125 -4.664062 4.828125 -7.1875 L 4.828125 -19.8125 L 1.234375 -19.8125 L 1.234375 -23.65625 L 4.828125 -23.65625 L 4.828125 -30.75 L 9.859375 -30.75 L 9.859375 -23.65625 L 15.671875 -23.65625 L 15.671875 -19.8125 L 9.859375 -19.8125 L 9.859375 -7.546875 C 9.859375 -5.960938 10.160156 -4.84375 10.765625 -4.1875 C 11.367188 -3.53125 12.476562 -3.203125 14.09375 -3.203125 C 15.050781 -3.203125 16.003906 -3.414062 16.953125 -3.84375 L 16.953125 0.09375 C 15.703125 0.519531 14.160156 0.734375 12.328125 0.734375 Z M 12.328125 0.734375 "/></g></g></g></svg>